<?xml version="1.0" encoding="UTF-8"?><svg id="Layer_1" xmlns="http://www.w3.org/2000/svg" viewBox="0 0 226.77 68.03"><path d="M25.57,10.64h9.27v27.37h-9.27V10.64Z" style="fill:#1d1c1b;"/><path d="M37.72,38.01V10.64h7.59c2.57,0,4.86.29,6.87.86,2.01.57,3.71,1.44,5.09,2.59,1.38,1.15,2.43,2.58,3.16,4.29.72,1.71,1.09,3.69,1.09,5.93s-.36,4.22-1.09,5.93c-.72,1.71-1.78,3.14-3.16,4.29-1.38,1.15-3.08,2.02-5.09,2.61-2.01.59-4.3.88-6.87.88h-7.59ZM46.46,30.21c2.05,0,3.64-.49,4.76-1.46,1.12-.97,1.68-2.45,1.68-4.45s-.56-3.47-1.68-4.43c-1.12-.96-2.71-1.44-4.76-1.44v11.78Z" style="fill:#1d1c1b;"/><path d="M63.77,10.64h7.22l7.14,10.5,7.1-10.5h7.22v27.37h-8.74v-9.85l-5.58,8.21-5.62-8.21v9.85h-8.74V10.64Z" style="fill:#1d1c1b;"/><path d="M95.33,10.64h9.27v27.37h-9.27V10.64Z" style="fill:#1d1c1b;"/><path d="M.5,13.1c-.43-.47-.25-.86.38-.86h6.73c.63,0,1.52.37,1.97.82l10.48,10.48c.45.45.45,1.18,0,1.63l-10.48,10.48c-.45.45-1.34.82-1.97.82H.88c-.63,0-.81-.39-.38-.86l9.41-10.4c.43-.47.43-1.24,0-1.71L.5,13.1Z" style="fill:#e0251c;"/><path d="M22.42,28.59c0-.63-.37-.79-.82-.34l-10.48,10.48c-.45.45-.82,1.34-.82,1.97v6.73c0,.63.38.8.84.37l10.43-9.77c.46-.43.84-1.31.84-1.94v-7.5Z" style="fill:#00953b;"/><path d="M22.42,20.12c0,.63-.37.79-.82.34l-10.48-10.48c-.45-.45-.82-1.34-.82-1.97V1.28c0-.63.38-.8.84-.37l10.43,9.77c.46.43.84,1.31.84,1.94v7.5Z" style="fill:#1d1c1b;"/><path d="M27.21,63.4c-.29-.15-.51-.34-.66-.59-.16-.24-.23-.51-.23-.8,0-.34.17-.68.5-1.05s.78-.73,1.32-1.09,1.17-.72,1.86-1.07v.97c-.61.3-1.15.62-1.63.95-.48.33-.87.66-1.17,1,.06.21.21.38.43.51.22.14.47.2.75.2.31,0,.62-.08.92-.23.3-.15.59-.36.87-.63l.13.91c-.26.37-.59.65-.98.84-.39.19-.77.29-1.12.29s-.71-.07-.99-.22ZM27.31,56.95l.78-.9c.25.22.54.49.89.83l-.77.91c-.3-.29-.59-.57-.9-.84ZM28.71,56.95l.78-.9c.25.22.54.49.89.83l-.77.91c-.3-.29-.59-.57-.9-.84ZM30.79,64.27c-.33-.12-.57-.32-.72-.59-.16-.27-.24-.62-.26-1.05l-.17-4.16.95-.25.11,3.89c0,.31.05.54.14.7.08.16.23.27.44.33s.54.1.98.1c.1,0,.18.05.23.15s.08.23.08.39c0,.25-.03.42-.1.53s-.18.16-.36.16c-.55,0-.99-.06-1.32-.19Z" style="fill:#1d1c1b;"/><path d="M31.85,64.3c-.06-.1-.08-.26-.08-.47,0-.11.02-.21.06-.31.04-.09.1-.16.17-.22.07-.05.16-.08.25-.08.32,0,.61-.01.86-.04s.5-.07.74-.11c0-.39.02-.99.04-1.78v-.32l.99-.14-.02.47c-.02.42-.04.8-.07,1.13s-.07.63-.11.9c-.06.36-.33.64-.79.83-.46.2-1.06.29-1.8.29-.1,0-.18-.05-.24-.16ZM32.81,66.19l.78-.9c.25.22.54.49.89.83l-.77.91c-.3-.29-.59-.57-.9-.84ZM34.87,64.31c-.32-.1-.61-.28-.87-.53l.35-.87c.33.13.62.22.89.26.26.05.58.07.95.07.11,0,.19.05.25.14.05.1.08.24.08.43,0,.18-.04.33-.13.45s-.2.19-.34.19c-.45,0-.84-.05-1.16-.15ZM34.21,66.19l.78-.9c.25.22.54.49.89.83l-.77.91c-.3-.29-.59-.57-.9-.84Z" style="fill:#1d1c1b;"/><path d="M35.78,64.3c-.06-.1-.08-.26-.08-.47s.04-.36.13-.45c.08-.1.2-.14.35-.14.3,0,.59-.03.88-.1.29-.07.56-.17.8-.32l.3.55c-.12.26-.29.46-.5.63s-.46.28-.74.35c-.28.07-.57.11-.89.11-.1,0-.18-.05-.24-.16ZM38.24,64.31c-.28-.1-.49-.25-.61-.46-.12-.21-.19-.47-.2-.8l-.17-6.67,1.08-.34.06,6.5c0,.22.04.37.1.47.06.1.16.16.31.19s.39.04.72.04c.1,0,.18.05.23.14.05.1.07.24.07.42,0,.21-.04.37-.11.48s-.19.17-.34.17c-.48,0-.86-.05-1.14-.15Z" style="fill:#1d1c1b;"/><path d="M39.14,64.31c-.05-.1-.07-.26-.07-.47,0-.19.04-.34.11-.44.08-.1.19-.16.35-.16.24,0,.46,0,.67-.02.21-.01.4-.03.57-.05.18-.02.34-.05.5-.08-.03-.41-.08-.83-.16-1.27s-.16-.86-.25-1.24l1.01-.41c.11.42.2.82.25,1.22.06.4.08.78.08,1.15,0,.41-.06.74-.19.99-.13.25-.32.45-.57.59-.21.11-.49.2-.86.26-.36.06-.77.09-1.21.09-.11,0-.19-.05-.24-.15ZM39.35,66.19l.78-.9c.25.22.54.49.89.83l-.77.91c-.3-.29-.59-.57-.9-.84ZM40.75,66.19l.78-.9c.25.22.54.49.89.83l-.77.91c-.3-.29-.59-.57-.9-.84Z" style="fill:#1d1c1b;"/><path d="M42.94,67.1l.02-.99c.33.06.7.1,1.12.1.56,0,1.05-.09,1.47-.27.42-.18.75-.46.97-.83.22-.38.33-.84.31-1.39l-.04-.31c-.02-.66-.15-1.18-.39-1.55-.25-.37-.57-.56-.96-.56-.2,0-.38.05-.53.14-.16.1-.28.24-.37.42s-.14.4-.14.66c0,.3.08.49.23.6.16.1.44.16.84.16.23,0,.43,0,.59,0s.37-.01.63-.01c.76-.02,1.38-.02,1.85-.02.1,0,.18.04.23.13.05.09.08.23.08.42,0,.22-.04.38-.13.5-.09.12-.2.17-.34.17-.37,0-.75.01-1.15.01-.39,0-.75.01-1.09,0-.34,0-.61-.01-.81-.03-.57-.05-1.01-.22-1.31-.51-.3-.3-.45-.74-.45-1.34,0-.51.09-.96.27-1.33s.42-.67.72-.86c.3-.2.61-.29.94-.29.45,0,.83.15,1.15.45.32.3.57.71.74,1.23.17.52.26,1.09.26,1.72,0,.79-.13,1.47-.38,2.05-.26.57-.63,1.02-1.14,1.33-.5.31-1.12.47-1.84.47-.55,0-1.01-.08-1.38-.25Z" style="fill:#1d1c1b;"/><path d="M48.17,64.31c-.06-.1-.09-.23-.09-.41,0-.21.04-.37.13-.49.09-.12.2-.18.35-.18.58,0,1.16-.06,1.72-.19.57-.12,1.15-.32,1.75-.58.15-.06.28-.12.39-.17.11-.05.24-.11.4-.18.5-.23.91-.41,1.23-.54s.63-.23.92-.29l-.06.61c-.42-.02-.81-.09-1.17-.2-.36-.11-.78-.26-1.26-.46-.39-.16-.71-.28-.96-.35-.25-.08-.5-.11-.75-.11-.23,0-.44.03-.64.09-.2.06-.42.15-.66.27l-.19-.79c.21-.25.46-.45.77-.6.31-.15.62-.23.94-.23.28,0,.55.05.82.14.27.1.61.25,1.04.45.21.1.41.2.61.3.34.15.61.26.82.33.21.07.47.12.77.16.3.03.7.05,1.2.05l-.08,1.14c-.43.02-.83.09-1.2.19-.37.1-.69.22-.98.35s-.65.32-1.08.55c-.14.07-.29.15-.43.23-.43.22-.85.41-1.24.56-.4.15-.83.27-1.3.36s-.98.13-1.53.13c-.1,0-.17-.05-.23-.14ZM55.34,64.22c-.33-.16-.58-.42-.75-.77-.17-.35-.27-.83-.31-1.42l.62-.24c.08.41.18.71.29.9.11.2.28.33.5.41.22.08.55.12.97.13h.14c.11,0,.19.05.24.15.05.1.07.24.07.42,0,.2-.04.36-.11.47s-.19.17-.34.17c-.55,0-.99-.08-1.32-.24Z" style="fill:#1d1c1b;"/><path d="M56.41,64.3c-.06-.1-.08-.26-.08-.47,0-.11.02-.21.06-.31.04-.09.1-.16.17-.22.07-.05.16-.08.25-.08.32,0,.61-.01.86-.04s.5-.07.74-.11c0-.39.02-.99.04-1.78v-.32l.99-.14-.02.47c-.02.42-.04.8-.07,1.13-.03.33-.07.63-.11.9-.06.36-.33.64-.79.83s-1.06.29-1.79.29c-.1,0-.18-.05-.24-.16ZM57.35,58.92l.78-.9c.25.22.54.49.89.83l-.77.91c-.29-.29-.59-.57-.9-.84ZM59.43,64.31c-.32-.1-.61-.28-.87-.53l.35-.87c.33.13.62.22.89.26.26.05.58.07.95.07.11,0,.19.05.25.14.05.1.08.24.08.43,0,.18-.04.33-.13.45-.09.13-.2.19-.34.19-.45,0-.84-.05-1.16-.15ZM58.75,58.92l.78-.9c.25.22.54.49.89.83l-.77.91c-.3-.29-.59-.57-.9-.84Z" style="fill:#1d1c1b;"/><path d="M60.34,64.31c-.06-.1-.08-.25-.08-.47s.04-.36.11-.46.2-.15.36-.15c.14,0,.28,0,.41-.01.13,0,.26-.02.39-.05.13-.02.25-.05.36-.08l-.2-6.71,1.08-.34.1,6.37c0,.41-.03.73-.12.98-.09.25-.22.45-.41.61-.19.17-.43.29-.72.35s-.63.1-1.04.1c-.1,0-.18-.05-.24-.14Z" style="fill:#1d1c1b;"/><path d="M64.83,64.38l-.19-8.01,1.08-.34.08,6.58c0,.34,0,.65-.05.96-.04.3-.1.59-.17.86l-.75-.06Z" style="fill:#1d1c1b;"/><path d="M71.21,64.19c-.52-.18-.9-.45-1.16-.83s-.38-.85-.38-1.43c0-.37.03-.71.08-1.02.06-.31.13-.6.22-.87l.8.16c-.06.27-.1.51-.13.72s-.05.43-.05.68c0,.4.08.72.24.95s.44.41.84.51.97.16,1.7.16c.85,0,1.61-.05,2.26-.16s1.24-.25,1.77-.43c-.04-.38-.11-.77-.2-1.18-.09-.41-.21-.85-.34-1.31l1.02-.45c.14.52.24.99.31,1.41.07.42.1.83.1,1.23,0,.52-.22.94-.65,1.25-.43.32-1.03.54-1.78.68s-1.65.2-2.67.2c-.8,0-1.46-.09-1.97-.27ZM72.34,59.36l.78-.9c.25.22.54.49.88.83l-.77.91c-.3-.29-.59-.57-.9-.84ZM73.74,59.36l.78-.9c.25.22.54.49.89.83l-.77.91c-.29-.29-.59-.57-.9-.84Z" style="fill:#1d1c1b;"/><path d="M81.04,64.25c-.31-.14-.55-.36-.71-.68-.16-.32-.25-.75-.26-1.3l-.16-5.89,1.08-.34.08,5.84c0,.38.05.67.11.86.07.19.19.32.38.39.18.07.47.11.85.11.12,0,.21.06.28.19.06.13.1.28.1.45s-.05.33-.14.42c-.1.1-.22.15-.38.15-.5,0-.91-.07-1.22-.2Z" style="fill:#1d1c1b;"/><path d="M82.02,64.29c-.06-.11-.08-.27-.08-.5,0-.19.04-.33.13-.42s.2-.14.35-.14c.48,0,.82,0,1.03-.01.45-.02.86-.04,1.24-.07.38-.03.8-.08,1.24-.13l-.08.77c-.59.07-1.08.01-1.47-.19-.39-.2-.67-.47-.85-.84s-.27-.75-.27-1.17c0-.49.11-.93.32-1.29.21-.37.5-.65.86-.84.36-.2.75-.29,1.17-.29.33,0,.64.05.93.15.29.1.56.24.8.41l-.17.86c-.14-.06-.28-.1-.43-.14-.32-.08-.66-.12-1.02-.12-.49,0-.86.11-1.13.33-.27.22-.4.53-.4.93s.12.74.35.99c.23.25.58.38,1.05.38.27,0,.6-.05.98-.14.38-.09.79-.22,1.21-.38l.16,1.01c-.83.37-1.73.64-2.69.79-.96.15-1.96.23-3,.23-.1,0-.18-.05-.24-.16Z" style="fill:#1d1c1b;"/><path d="M90.53,64.25c-.31-.14-.55-.36-.71-.68-.16-.32-.25-.75-.26-1.3l-.16-5.89,1.08-.34.08,5.84c0,.38.05.67.11.86.07.19.19.32.38.39.18.07.47.11.85.11.12,0,.21.06.28.19.06.13.1.28.1.45s-.05.33-.14.42c-.1.1-.22.15-.38.15-.5,0-.91-.07-1.22-.2Z" style="fill:#1d1c1b;"/><path d="M91.51,64.3c-.06-.1-.08-.26-.08-.47,0-.11.02-.21.06-.31.04-.09.1-.16.17-.22.07-.05.16-.08.25-.08.32,0,.61-.01.86-.04s.5-.07.74-.11c0-.39.02-.99.04-1.78v-.32l.99-.14-.02.47c-.02.42-.04.8-.07,1.13-.03.33-.07.63-.11.9-.06.36-.33.64-.79.83s-1.06.29-1.79.29c-.1,0-.18-.05-.24-.16ZM93.12,58.83l.78-.93c.26.23.56.52.89.86l-.77.96c-.3-.3-.59-.6-.9-.89ZM94.53,64.31c-.32-.1-.61-.28-.87-.53l.35-.87c.33.13.62.22.89.26.26.05.58.07.95.07.11,0,.19.05.25.14.05.1.08.24.08.43,0,.18-.04.33-.13.45-.09.13-.2.19-.34.19-.45,0-.84-.05-1.16-.15Z" style="fill:#1d1c1b;"/><path d="M95.43,64.3c-.05-.1-.07-.27-.07-.49,0-.19.04-.33.12-.43.08-.1.2-.14.36-.14.23,0,.43-.01.59-.04.16-.02.31-.06.45-.12.05-.56.08-1.07.1-1.53l.8-.07c-.03.6-.06,1.11-.1,1.52.22.09.49.15.83.19s.8.05,1.4.05c.52,0,1-.03,1.44-.08.44-.05.83-.12,1.16-.22.33-.09.6-.19.81-.31-.05-.29-.16-.58-.32-.89-.17-.3-.38-.56-.64-.77-.26-.21-.54-.31-.84-.31-.4,0-.84.27-1.33.81-.49.54-1.01,1.3-1.58,2.28l-.86-.1c.5-.93.99-1.7,1.47-2.33.49-.63.95-1.1,1.4-1.41.45-.31.87-.46,1.26-.46s.76.12,1.1.37.62.57.82.97c.2.4.31.84.31,1.3,0,.26-.04.51-.11.73-.07.22-.18.42-.34.6-.15.18-.34.32-.57.44-.4.2-.87.35-1.4.44-.53.1-1.18.14-1.94.14-.52,0-.96-.03-1.32-.09-.36-.06-.65-.16-.87-.29-.22-.13-.37-.31-.46-.54h.47c-.15.34-.36.58-.64.72-.27.14-.69.2-1.24.2-.12,0-.2-.05-.25-.16ZM103.62,64.31c-.35-.1-.66-.28-.95-.54l.45-.95c.27.16.54.27.81.32.27.06.63.08,1.08.08.1,0,.18.05.23.14.05.1.08.24.08.43,0,.21-.04.37-.11.48-.08.11-.19.17-.34.17-.49,0-.9-.05-1.25-.14Z" style="fill:#1d1c1b;"/><path d="M104.61,64.3c-.06-.1-.08-.26-.08-.47s.04-.36.13-.45c.08-.1.2-.14.35-.14.29,0,.59-.03.88-.1.29-.07.56-.17.8-.32l.3.55c-.12.26-.29.46-.5.63s-.46.28-.74.35c-.28.07-.57.11-.89.11-.1,0-.18-.05-.24-.16ZM107.07,64.31c-.28-.1-.49-.25-.61-.46-.12-.21-.19-.47-.2-.8l-.17-6.67,1.08-.34.06,6.5c0,.22.04.37.1.47.06.1.16.16.31.19s.39.04.72.04c.1,0,.18.05.23.14.05.1.07.24.07.42,0,.21-.04.37-.11.48-.08.12-.19.17-.34.17-.48,0-.86-.05-1.14-.15Z" style="fill:#1d1c1b;"/><path d="M107.97,64.31c-.06-.1-.08-.25-.08-.47s.04-.36.11-.46.2-.15.36-.15c.14,0,.28,0,.41-.01.13,0,.26-.02.39-.05.13-.02.25-.05.36-.08l-.2-6.71,1.08-.34.1,6.37c0,.41-.03.73-.12.98-.09.25-.22.45-.41.61-.19.17-.43.29-.72.35s-.63.1-1.04.1c-.1,0-.18-.05-.24-.14Z" style="fill:#1d1c1b;"/><path d="M114.84,64.01c-.3-.3-.45-.71-.45-1.23s.13-1.05.4-1.58.63-1.08,1.08-1.66l.62.36c-.38.48-.68.93-.9,1.35s-.32.8-.32,1.14c0,.3.08.51.23.65.16.14.43.21.83.21s.72-.05,1.02-.14c.3-.09.61-.23.93-.41l-.22.45c-.06-.49-.19-.95-.41-1.38-.22-.42-.52-.81-.89-1.15-.37-.35-.82-.66-1.35-.94l.56-1.05c.82.43,1.48,1,1.99,1.71.5.71.75,1.45.75,2.22,0,.6-.23,1.07-.69,1.4-.46.34-1.08.5-1.85.5-.6,0-1.05-.15-1.35-.45ZM114.76,57.08l.78-.9c.25.22.54.49.89.83l-.77.91c-.29-.29-.59-.57-.9-.84ZM116.16,57.08l.78-.9c.25.22.54.49.89.83l-.77.91c-.3-.29-.59-.57-.9-.84Z" style="fill:#1d1c1b;"/><path d="M119.63,67.29c-.22-.04-.43-.1-.63-.18l.04-1.01c.34.06.67.1.99.1.52,0,.98-.1,1.38-.29.4-.19.72-.47.95-.84.24-.37.38-.81.45-1.32-.14-.39-.31-.76-.5-1.12-.19-.35-.44-.81-.75-1.37l.91-.67c.35.55.64,1.12.88,1.72s.35,1.11.35,1.55c0,.68-.14,1.28-.42,1.81-.28.53-.68.94-1.2,1.23-.51.3-1.09.44-1.74.44-.26,0-.49-.02-.71-.06Z" style="fill:#1d1c1b;"/><path d="M124.43,67.1l.02-.99c.33.06.7.1,1.13.1.56,0,1.05-.09,1.47-.27.42-.18.75-.46.97-.83.22-.38.33-.84.31-1.39l-.04-.31c-.02-.66-.15-1.18-.39-1.55-.25-.37-.57-.56-.96-.56-.2,0-.38.05-.53.14-.16.1-.28.24-.37.42-.09.18-.14.4-.14.66,0,.3.08.49.23.6.16.1.44.16.84.16.23,0,.43,0,.59,0,.16,0,.37-.01.63-.01.76-.02,1.38-.02,1.85-.02.1,0,.18.04.23.13.05.09.08.23.08.42,0,.22-.04.38-.13.5s-.2.17-.33.17c-.37,0-.75.01-1.15.01-.39,0-.75.01-1.09,0-.33,0-.61-.01-.81-.03-.57-.05-1.01-.22-1.31-.51-.3-.3-.45-.74-.45-1.34,0-.51.09-.96.27-1.33s.42-.67.72-.86c.3-.2.61-.29.94-.29.45,0,.83.15,1.15.45.32.3.57.71.74,1.23.17.52.26,1.09.26,1.72,0,.79-.13,1.47-.38,2.05-.26.57-.63,1.02-1.14,1.33-.5.31-1.12.47-1.84.47-.55,0-1.01-.08-1.38-.25Z" style="fill:#1d1c1b;"/><path d="M129.66,64.3c-.06-.1-.08-.26-.08-.48,0-.12.02-.22.06-.31.04-.09.1-.16.17-.2.07-.05.16-.07.25-.07h.79c1.47-.02,2.61-.07,3.42-.16.81-.09,1.46-.24,1.96-.44-.04-.29-.14-.58-.31-.89-.16-.3-.37-.56-.63-.77s-.54-.31-.84-.31c-.41,0-.85.27-1.33.81s-.99,1.3-1.52,2.27l-.65-.12c.64-1.38,1.29-2.42,1.96-3.12s1.3-1.05,1.89-1.05c.39,0,.76.12,1.1.36.34.24.62.56.82.96.2.4.31.83.31,1.29,0,.27-.03.52-.1.74s-.18.42-.33.59c-.15.17-.35.31-.59.4-.57.25-1.3.42-2.21.51-.91.09-2.21.14-3.9.14-.1,0-.18-.05-.24-.16ZM131.02,63.68l-.13-7.3,1.08-.34v3.94c0,.6-.01,1.1-.04,1.49-.03.39-.08.79-.16,1.18l-.43,1.08-.31-.05ZM136.81,64.38c-.28-.05-.53-.15-.75-.28-.22-.14-.43-.33-.62-.57l.49-.55c.29.09.6.15.92.2.32.04.69.07,1.1.07.11,0,.19.04.24.13.05.09.07.22.07.41,0,.22-.04.38-.11.5-.08.12-.19.18-.34.18-.39,0-.72-.03-1-.08Z" style="fill:#1d1c1b;"/><path d="M137.56,64.3c-.06-.1-.08-.26-.08-.47,0-.11.02-.21.06-.31.04-.09.1-.16.17-.22.07-.05.16-.08.25-.08.32,0,.61-.01.86-.04s.5-.07.74-.11c0-.39.02-.99.04-1.78v-.32l.99-.14-.02.47c-.02.42-.04.8-.07,1.13-.03.33-.07.63-.11.9-.06.36-.33.64-.79.83s-1.06.29-1.79.29c-.1,0-.18-.05-.24-.16ZM138.49,58.92l.78-.9c.25.22.54.49.89.83l-.77.91c-.29-.29-.59-.57-.9-.84ZM140.57,64.31c-.32-.1-.61-.28-.87-.53l.35-.87c.33.13.62.22.89.26.26.05.58.07.95.07.11,0,.19.05.25.14.05.1.08.24.08.43,0,.18-.04.33-.13.45-.09.13-.2.19-.34.19-.45,0-.84-.05-1.16-.15ZM139.89,58.92l.78-.9c.25.22.54.49.89.83l-.77.91c-.3-.29-.59-.57-.9-.84Z" style="fill:#1d1c1b;"/><path d="M144.43,64.18c-.45-.25-.81-.57-1.08-.98l.52-.83c.28.34.59.59.93.75.34.17.72.25,1.14.25.26,0,.47-.03.64-.1.17-.06.32-.15.45-.26-.08-.32-.19-.63-.32-.95-.14-.31-.29-.57-.47-.77-.18-.2-.36-.31-.55-.31s-.37.09-.56.28-.43.5-.72.96c-.06.1-.12.19-.16.26-.04.07-.1.15-.17.26-.16.24-.31.45-.46.64-.15.19-.29.36-.44.51-.19.19-.4.33-.63.42-.23.09-.5.14-.81.14-.11,0-.19-.05-.25-.16s-.08-.26-.08-.46.04-.34.12-.44c.08-.1.2-.16.36-.16.21,0,.39-.04.56-.11.16-.07.32-.18.47-.34.14-.14.27-.3.41-.48.14-.18.29-.38.44-.6l.32-.48c.32-.48.62-.83.9-1.05.28-.22.58-.33.9-.33.34,0,.63.13.89.4.26.27.49.63.68,1.1.1.26.17.48.2.64.03.16.04.37.04.62v.05c0,.41-.06.75-.19,1.03-.13.28-.33.49-.6.64-.27.15-.61.22-1.03.22-.5,0-.98-.12-1.44-.37ZM147.69,63.91c-.16-.18-.29-.39-.38-.63-.1-.25-.18-.53-.26-.86,0-.03-.02-.07-.02-.11l.42-.95c.04.1.07.18.1.25.03.07.06.16.1.25.09.22.17.41.24.56.07.15.16.29.25.41.12.14.25.25.39.31s.33.1.55.1c.1,0,.18.05.23.15s.08.23.08.4c0,.19-.04.35-.13.48-.08.13-.19.19-.33.19-.49,0-.9-.18-1.24-.55Z" style="fill:#1d1c1b;"/><path d="M148.69,64.31c-.06-.1-.08-.25-.08-.47s.04-.36.11-.46.2-.15.36-.15c.14,0,.28,0,.41-.01.13,0,.26-.02.39-.05.13-.02.25-.05.36-.08l-.2-6.71,1.08-.34.1,6.37c0,.41-.03.73-.12.98-.09.25-.22.45-.41.61-.19.17-.43.29-.72.35s-.63.1-1.04.1c-.1,0-.18-.05-.24-.14Z" style="fill:#1d1c1b;"/><path d="M153.17,64.38l-.19-8.01,1.08-.34.08,6.58c0,.34,0,.65-.05.96-.04.3-.1.59-.17.86l-.75-.06Z" style="fill:#1d1c1b;"/><path d="M158.92,63.4c-.29-.15-.51-.34-.66-.59-.16-.24-.23-.51-.23-.8,0-.34.17-.68.5-1.05s.78-.73,1.32-1.09,1.17-.72,1.86-1.07v.97c-.61.3-1.15.62-1.63.95-.48.33-.87.66-1.17,1,.06.21.21.38.43.51.22.14.47.2.75.2.31,0,.62-.08.92-.23s.59-.36.87-.63l.13.91c-.26.37-.59.65-.98.84-.39.19-.77.29-1.13.29s-.71-.07-.99-.22ZM159.01,56.95l.78-.9c.25.22.54.49.88.83l-.77.91c-.3-.29-.59-.57-.9-.84ZM160.41,56.95l.78-.9c.25.22.54.49.89.83l-.77.91c-.29-.29-.59-.57-.9-.84ZM162.5,64.27c-.33-.12-.57-.32-.72-.59-.16-.27-.24-.62-.26-1.05l-.17-4.16.95-.25.11,3.89c0,.31.05.54.14.7.08.16.23.27.44.33s.54.1.98.1c.1,0,.18.05.23.15s.08.23.08.39c0,.25-.03.42-.1.53-.06.1-.18.16-.36.16-.55,0-.99-.06-1.32-.19Z" style="fill:#1d1c1b;"/><path d="M163.56,64.3c-.06-.1-.08-.26-.08-.47,0-.11.02-.21.06-.31.04-.09.1-.16.17-.22.07-.05.16-.08.25-.08.32,0,.61-.01.86-.04s.5-.07.74-.11c0-.39.02-.99.04-1.78v-.32l.99-.14-.02.47c-.02.42-.04.8-.07,1.13-.03.33-.07.63-.11.9-.06.36-.33.64-.79.83s-1.06.29-1.79.29c-.1,0-.18-.05-.24-.16ZM164.52,66.19l.78-.9c.25.22.54.49.88.83l-.77.91c-.3-.29-.59-.57-.9-.84ZM166.58,64.31c-.32-.1-.61-.28-.87-.53l.35-.87c.33.13.62.22.89.26.26.05.58.07.95.07.11,0,.19.05.25.14.05.1.08.24.08.43,0,.18-.04.33-.13.45-.09.13-.2.19-.34.19-.45,0-.84-.05-1.16-.15ZM165.92,66.19l.78-.9c.25.22.54.49.89.83l-.77.91c-.29-.29-.59-.57-.9-.84Z" style="fill:#1d1c1b;"/><path d="M167.49,64.31c-.06-.1-.08-.25-.08-.47s.04-.36.11-.46.2-.15.36-.15c.14,0,.28,0,.41-.01.13,0,.26-.02.39-.05.13-.02.25-.05.36-.08l-.2-6.71,1.08-.34.1,6.37c0,.41-.03.73-.12.98-.09.25-.22.45-.41.61-.19.17-.43.29-.72.35s-.63.1-1.04.1c-.1,0-.18-.05-.24-.14Z" style="fill:#1d1c1b;"/><path d="M172.91,64.25c-.31-.14-.55-.36-.71-.68-.16-.32-.25-.75-.26-1.3l-.16-5.89,1.08-.34.08,5.84c0,.38.05.67.11.86.07.19.19.32.38.39.18.07.47.11.85.11.12,0,.21.06.28.19.06.13.1.28.1.45s-.05.33-.14.42c-.1.1-.22.15-.38.15-.5,0-.91-.07-1.22-.2Z" style="fill:#1d1c1b;"/><path d="M173.89,64.3c-.06-.1-.08-.26-.08-.47,0-.11.02-.21.06-.31.04-.09.1-.16.17-.22.07-.05.16-.08.25-.08.32,0,.61-.01.86-.04s.5-.07.74-.11c0-.39.02-.99.04-1.78v-.32l.99-.14-.02.47c-.02.42-.04.8-.07,1.13-.03.33-.07.63-.11.9-.06.36-.33.64-.79.83s-1.06.29-1.79.29c-.1,0-.18-.05-.24-.16ZM174.91,59.03l.78-.89c.16.14.35.32.56.51l.31.31-.77.91c-.37-.37-.67-.65-.89-.85ZM175.91,57.78l-.34-.34.73-.9c.26.24.53.51.84.83l-.73.91c-.15-.17-.32-.34-.5-.5ZM176.91,64.31c-.32-.1-.61-.28-.87-.53l.35-.87c.33.13.62.22.89.26.26.05.58.07.95.07.11,0,.19.05.25.14.05.1.08.24.08.43,0,.18-.04.33-.13.45-.09.13-.2.19-.34.19-.45,0-.84-.05-1.16-.15ZM176.3,59.03l.78-.89c.16.14.35.32.56.51l.31.31-.77.91c-.37-.37-.67-.65-.89-.85Z" style="fill:#1d1c1b;"/><path d="M180.76,64.18c-.45-.25-.81-.57-1.08-.98l.52-.83c.28.34.59.59.93.75.34.17.72.25,1.14.25.26,0,.47-.03.64-.1.17-.06.32-.15.45-.26-.08-.32-.19-.63-.32-.95-.14-.31-.29-.57-.47-.77-.18-.2-.36-.31-.55-.31s-.37.09-.56.28-.43.5-.72.96c-.06.1-.12.19-.16.26-.04.07-.1.15-.17.26-.16.24-.31.45-.46.64-.15.19-.29.36-.44.51-.19.19-.4.33-.63.42-.23.09-.5.14-.81.14-.11,0-.19-.05-.25-.16s-.08-.26-.08-.46.04-.34.12-.44c.08-.1.2-.16.36-.16.21,0,.39-.04.56-.11.16-.07.32-.18.47-.34.14-.14.27-.3.41-.48.14-.18.29-.38.44-.6l.32-.48c.32-.48.62-.83.9-1.05.28-.22.58-.33.9-.33.34,0,.63.13.89.4.26.27.49.63.68,1.1.1.26.17.48.2.64.03.16.04.37.04.62v.05c0,.41-.06.75-.19,1.03-.13.28-.33.49-.6.64-.27.15-.61.22-1.03.22-.5,0-.98-.12-1.44-.37ZM184.03,63.91c-.16-.18-.29-.39-.38-.63-.1-.25-.18-.53-.26-.86,0-.03-.02-.07-.02-.11l.42-.95c.04.1.07.18.1.25.03.07.06.16.1.25.09.22.17.41.24.56.07.15.16.29.25.41.12.14.25.25.39.31s.33.1.55.1c.1,0,.18.05.23.15s.08.23.08.4c0,.19-.04.35-.13.48-.08.13-.19.19-.33.19-.49,0-.9-.18-1.24-.55Z" style="fill:#1d1c1b;"/><path d="M185.02,64.31c-.06-.1-.08-.25-.08-.47s.04-.36.11-.46.2-.15.36-.15c.14,0,.28,0,.41-.01.13,0,.26-.02.39-.05.13-.02.25-.05.36-.08l-.2-6.71,1.08-.34.1,6.37c0,.41-.03.73-.12.98-.09.25-.22.45-.41.61-.19.17-.43.29-.72.35s-.63.1-1.04.1c-.1,0-.18-.05-.24-.14Z" style="fill:#1d1c1b;"/><path d="M189.51,64.38l-.19-8.01,1.08-.34.08,6.58c0,.34,0,.65-.05.96-.04.3-.1.59-.17.86l-.75-.06Z" style="fill:#1d1c1b;"/><path d="M195.25,63.4c-.29-.15-.51-.34-.66-.59-.16-.24-.23-.51-.23-.8,0-.34.17-.68.5-1.05s.78-.73,1.32-1.09,1.17-.72,1.86-1.07v.97c-.61.3-1.15.62-1.63.95-.48.33-.87.66-1.17,1,.06.21.21.38.43.51.22.14.47.2.75.2.31,0,.62-.08.92-.23s.59-.36.87-.63l.13.91c-.26.37-.59.65-.98.84-.39.19-.77.29-1.13.29s-.71-.07-.99-.22ZM195.35,56.95l.78-.9c.25.22.54.49.88.83l-.77.91c-.3-.29-.59-.57-.9-.84ZM196.75,56.95l.78-.9c.25.22.54.49.89.83l-.77.91c-.29-.29-.59-.57-.9-.84ZM198.83,64.27c-.33-.12-.57-.32-.72-.59-.16-.27-.24-.62-.26-1.05l-.17-4.16.95-.25.11,3.89c0,.31.05.54.14.7.08.16.23.27.44.33s.54.1.98.1c.1,0,.18.05.23.15s.08.23.08.39c0,.25-.03.42-.1.53-.06.1-.18.16-.36.16-.55,0-.99-.06-1.32-.19Z" style="fill:#1d1c1b;"/><path d="M199.9,64.3c-.06-.1-.08-.26-.08-.45,0-.22.04-.37.12-.47.08-.1.2-.14.36-.14.68,0,1.24-.01,1.7-.04.45-.03.85-.07,1.17-.12.33-.05.64-.13.95-.22l-.1.33c-.1-.4-.26-.78-.5-1.14-.24-.36-.59-.75-1.05-1.15s-1.08-.84-1.85-1.3l.13-1.15,4.86-2.68-.07,1.3-4.61,2.26.12-.79c.85.5,1.55.99,2.09,1.47.54.48.93.94,1.18,1.38s.38.87.38,1.29c0,.34-.06.6-.19.8-.12.2-.31.37-.57.5-.34.18-.83.3-1.45.36-.63.07-1.41.1-2.35.1-.1,0-.18-.05-.24-.16Z" style="fill:#1d1c1b;"/><path d="M205.59,67.29c-.22-.04-.44-.1-.65-.19l.04-.99c.32.06.66.1,1.02.1.5,0,.95-.09,1.35-.28s.72-.46.96-.83.4-.81.45-1.34c-.12-.32-.26-.63-.42-.93-.16-.3-.4-.73-.72-1.29h-.01s.91-.65.91-.65c.14.27.28.54.42.8.24.47.42.81.55,1.03.11.19.27.33.48.41.21.08.53.12.96.12.1,0,.18.05.23.14s.08.23.08.4c0,.22-.03.38-.1.5-.07.12-.19.18-.36.18-.46,0-.84-.09-1.14-.28-.3-.18-.55-.51-.76-.98l.37-.31c.09.18.16.38.21.59.05.21.08.4.08.57,0,.65-.13,1.23-.4,1.73-.27.5-.64.89-1.13,1.16-.49.28-1.06.41-1.71.41-.24,0-.47-.02-.69-.06Z" style="fill:#1d1c1b;"/><path d="M210.54,64.29c-.06-.11-.08-.27-.08-.48,0-.18.04-.32.13-.42s.2-.15.35-.15c.35,0,.64-.03.86-.1.22-.06.37-.16.45-.28.09-.13.18-.33.26-.6.09-.28.2-.67.32-1.18l.84-.02c-.09.41-.18.78-.27,1.13-.09.35-.19.66-.3.94s-.22.5-.34.66c-.17.22-.42.38-.77.5-.35.12-.75.17-1.21.17-.1,0-.18-.06-.24-.17ZM213.42,64.29c-.42-.11-.78-.27-1.08-.49l.35-1.06c.31.16.65.28,1.01.36s.7.13,1.01.13c.21,0,.37,0,.5-.02s.25-.03.37-.07c.14-.59.26-1.33.36-2.23l.85-.04c-.06.65-.15,1.24-.25,1.78s-.21.93-.32,1.15c-.11.22-.3.38-.57.48s-.61.16-1.03.16c-.37,0-.77-.05-1.19-.16ZM214.83,59.06l.78-.89c.16.14.35.32.56.51l.31.31-.77.91c-.37-.37-.67-.65-.88-.85ZM215.84,57.8l-.34-.34.73-.9c.26.24.53.51.84.83l-.73.91c-.15-.17-.32-.34-.5-.5ZM216.57,64.32c-.29-.09-.56-.25-.81-.46l.45-1.04c.22.15.44.26.68.32s.47.1.7.1c.14,0,.28,0,.4-.02s.23-.04.31-.07c.09-.55.17-1.33.25-2.33l.86-.02c-.05.64-.1,1.18-.15,1.62-.05.44-.12.83-.21,1.15-.1.34-.28.58-.54.71-.26.13-.59.19-.99.19-.34,0-.66-.05-.95-.14ZM216.22,59.06l.78-.89c.16.14.35.32.56.51l.31.31-.77.91c-.37-.37-.67-.65-.88-.85ZM219.36,64.31c-.32-.1-.61-.27-.87-.53l.35-.95c.33.16.62.27.87.32s.57.08.96.08c.12,0,.2.05.25.14.05.1.07.24.07.43,0,.11-.02.22-.06.32-.04.1-.09.18-.16.24-.07.06-.15.09-.25.09-.45,0-.84-.05-1.16-.14Z" style="fill:#1d1c1b;"/><path d="M220.27,64.31c-.06-.1-.08-.25-.08-.47s.04-.36.11-.46.2-.15.36-.15c.14,0,.28,0,.41-.01.13,0,.26-.02.39-.05.13-.02.25-.05.36-.08l-.2-6.71,1.08-.34.1,6.37c0,.41-.03.73-.12.98-.09.25-.22.45-.41.61-.19.17-.43.29-.72.35s-.63.1-1.04.1c-.1,0-.18-.05-.24-.14Z" style="fill:#1d1c1b;"/><path d="M224.76,64.38l-.19-8.01,1.08-.34.08,6.58c0,.34,0,.65-.05.96-.04.3-.1.59-.17.86l-.75-.06Z" style="fill:#1d1c1b;"/><path d="M26.06,43.72h1.32v8.38h-1.32v-8.38Z" style="fill:#1d1c1b;"/><path d="M28.48,43.72h2.01c1.32,0,1.96.73,1.96,2.07v4.24c0,1.34-.65,2.07-1.96,2.07h-2.01v-8.38ZM30.47,50.9c.42,0,.67-.22.67-.81v-4.36c0-.6-.25-.81-.67-.81h-.67v5.99h.67Z" style="fill:#1d1c1b;"/><path d="M33.46,43.72h3.59v1.2h-2.27v2.22h1.81v1.2h-1.81v2.57h2.27v1.2h-3.59v-8.38Z" style="fill:#1d1c1b;"/><path d="M38.94,43.72h1.78l1.36,8.38h-1.32l-.24-1.66v.02h-1.5l-.24,1.64h-1.22l1.37-8.38ZM40.38,49.32l-.59-4.14h-.02l-.57,4.14h1.19Z" style="fill:#1d1c1b;"/><path d="M42.84,43.72h1.32v7.18h2.17v1.2h-3.48v-8.38Z" style="fill:#1d1c1b;"/><path d="M49.11,43.72h2.01c1.32,0,1.96.73,1.96,2.07v4.24c0,1.34-.65,2.07-1.96,2.07h-2.01v-8.38ZM51.1,50.9c.42,0,.67-.22.67-.81v-4.36c0-.6-.25-.81-.67-.81h-.67v5.99h.67Z" style="fill:#1d1c1b;"/><path d="M54.09,43.72h3.59v1.2h-2.27v2.22h1.81v1.2h-1.81v2.57h2.27v1.2h-3.59v-8.38Z" style="fill:#1d1c1b;"/><path d="M58.21,43.72h1.33l.86,6.5h.02l.86-6.5h1.21l-1.27,8.38h-1.75l-1.27-8.38Z" style="fill:#1d1c1b;"/><path d="M63.25,43.72h3.59v1.2h-2.27v2.22h1.81v1.2h-1.81v2.57h2.27v1.2h-3.59v-8.38Z" style="fill:#1d1c1b;"/><path d="M67.71,43.72h1.32v7.18h2.17v1.2h-3.48v-8.38Z" style="fill:#1d1c1b;"/><path d="M71.8,50.11v-4.41c0-1.34.71-2.11,2-2.11s2,.77,2,2.11v4.41c0,1.34-.71,2.11-2,2.11s-2-.77-2-2.11ZM74.48,50.19v-4.57c0-.6-.26-.83-.68-.83s-.68.23-.68.83v4.57c0,.6.26.83.68.83s.68-.23.68-.83Z" style="fill:#1d1c1b;"/><path d="M76.8,43.72h1.94c1.32,0,1.96.73,1.96,2.07v.83c0,1.34-.65,2.07-1.96,2.07h-.62v3.41h-1.32v-8.38ZM78.74,47.49c.42,0,.65-.19.65-.79v-.99c0-.6-.23-.79-.65-.79h-.62v2.57h.62Z" style="fill:#1d1c1b;"/><path d="M81.54,43.72h1.88l.84,6h.02l.84-6h1.88v8.38h-1.25v-6.35h-.02l-.96,6.35h-1.1l-.96-6.35h-.02v6.35h-1.15v-8.38Z" style="fill:#1d1c1b;"/><path d="M88.1,43.72h3.59v1.2h-2.27v2.22h1.81v1.2h-1.81v2.57h2.27v1.2h-3.59v-8.38Z" style="fill:#1d1c1b;"/><path d="M92.57,43.72h1.65l1.28,5.02h.02v-5.02h1.17v8.38h-1.35l-1.58-6.12h-.02v6.12h-1.17v-8.38Z" style="fill:#1d1c1b;"/><path d="M98.83,44.91h-1.38v-1.2h4.07v1.2h-1.38v7.18h-1.32v-7.18Z" style="fill:#1d1c1b;"/><path d="M104.31,43.72h3.48v1.2h-2.17v2.34h1.7v1.2h-1.7v3.65h-1.32v-8.38Z" style="fill:#1d1c1b;"/><path d="M108.45,50.11v-4.41c0-1.34.71-2.11,2-2.11s2,.77,2,2.11v4.41c0,1.34-.71,2.11-2,2.11s-2-.77-2-2.11ZM111.13,50.19v-4.57c0-.6-.26-.83-.68-.83s-.68.23-.68.83v4.57c0,.6.26.83.68.83s.68-.23.68-.83Z" style="fill:#1d1c1b;"/><path d="M113.45,43.72h1.95c1.36,0,1.95.63,1.95,1.93v.52c0,.86-.28,1.41-.86,1.65v.02c.66.2.87.83.87,1.77v1.47c0,.41.01.71.14,1.02h-1.34c-.07-.22-.12-.35-.12-1.03v-1.53c0-.78-.23-1.03-.83-1.03h-.45v3.59h-1.32v-8.38ZM115.25,47.31c.49,0,.79-.22.79-.89v-.65c0-.6-.2-.86-.67-.86h-.6v2.39h.48Z" style="fill:#1d1c1b;"/><path d="M120.43,43.72h1.88l.84,6h.02l.84-6h1.88v8.38h-1.25v-6.35h-.02l-.96,6.35h-1.1l-.96-6.35h-.02v6.35h-1.15v-8.38Z" style="fill:#1d1c1b;"/><path d="M128,43.72h1.78l1.36,8.38h-1.32l-.24-1.66v.02h-1.5l-.24,1.64h-1.22l1.36-8.38ZM129.44,49.32l-.59-4.14h-.02l-.57,4.14h1.19Z" style="fill:#1d1c1b;"/><path d="M131.9,43.72h1.65l1.28,5.02h.02v-5.02h1.17v8.38h-1.35l-1.58-6.12h-.02v6.12h-1.17v-8.38Z" style="fill:#1d1c1b;"/><path d="M137.09,50.11v-6.39h1.32v6.49c0,.6.25.81.67.81s.67-.22.67-.81v-6.49h1.27v6.39c0,1.34-.67,2.11-1.96,2.11s-1.96-.77-1.96-2.11Z" style="fill:#1d1c1b;"/><path d="M142.07,43.72h3.48v1.2h-2.17v2.34h1.7v1.2h-1.7v3.65h-1.32v-8.38Z" style="fill:#1d1c1b;"/><path d="M146.94,43.72h1.78l1.36,8.38h-1.32l-.24-1.66v.02h-1.5l-.24,1.64h-1.22l1.36-8.38ZM148.37,49.32l-.59-4.14h-.02l-.57,4.14h1.19Z" style="fill:#1d1c1b;"/><path d="M150.73,50.16v-4.5c0-1.29.67-2.06,1.94-2.06s1.94.77,1.94,2.06v.89h-1.25v-.97c0-.55-.26-.78-.66-.78s-.66.23-.66.78v4.68c0,.55.26.77.66.77s.66-.22.66-.77v-1.28h1.25v1.19c0,1.29-.67,2.06-1.94,2.06s-1.94-.77-1.94-2.06Z" style="fill:#1d1c1b;"/><path d="M156.55,44.91h-1.38v-1.2h4.07v1.2h-1.38v7.18h-1.32v-7.18Z" style="fill:#1d1c1b;"/><path d="M159.95,50.11v-6.39h1.32v6.49c0,.6.25.81.67.81s.67-.22.67-.81v-6.49h1.27v6.39c0,1.34-.67,2.11-1.96,2.11s-1.96-.77-1.96-2.11Z" style="fill:#1d1c1b;"/><path d="M164.92,43.72h1.95c1.36,0,1.95.63,1.95,1.93v.52c0,.86-.28,1.41-.86,1.65v.02c.66.2.87.83.87,1.77v1.47c0,.41.01.71.14,1.02h-1.34c-.07-.22-.12-.35-.12-1.03v-1.53c0-.78-.23-1.03-.83-1.03h-.45v3.59h-1.32v-8.38ZM166.72,47.31c.49,0,.79-.22.79-.89v-.65c0-.6-.2-.86-.67-.86h-.6v2.39h.48Z" style="fill:#1d1c1b;"/><path d="M169.87,43.72h1.32v8.38h-1.32v-8.38Z" style="fill:#1d1c1b;"/><path d="M172.28,43.72h1.65l1.28,5.02h.02v-5.02h1.17v8.38h-1.35l-1.58-6.12h-.02v6.12h-1.17v-8.38Z" style="fill:#1d1c1b;"/><path d="M177.42,50.11v-4.41c0-1.34.67-2.11,1.96-2.11s1.96.77,1.96,2.11v.72h-1.25v-.8c0-.6-.26-.83-.68-.83s-.68.23-.68.83v4.59c0,.6.26.81.68.81s.68-.22.68-.81v-1.64h-.66v-1.2h1.9v2.74c0,1.34-.67,2.11-1.96,2.11s-1.96-.77-1.96-2.11Z" style="fill:#1d1c1b;"/><path d="M184.35,43.72h1.32v8.38h-1.32v-8.38Z" style="fill:#1d1c1b;"/><path d="M186.76,43.72h1.65l1.28,5.02h.02v-5.02h1.17v8.38h-1.35l-1.58-6.12h-.02v6.12h-1.17v-8.38Z" style="fill:#1d1c1b;"/><path d="M191.99,43.72h2.01c1.32,0,1.96.73,1.96,2.07v4.24c0,1.34-.65,2.07-1.96,2.07h-2.01v-8.38ZM193.98,50.9c.42,0,.67-.22.67-.81v-4.36c0-.6-.25-.81-.67-.81h-.67v5.99h.67Z" style="fill:#1d1c1b;"/><path d="M196.93,50.11v-6.39h1.32v6.49c0,.6.25.81.67.81s.67-.22.67-.81v-6.49h1.27v6.39c0,1.34-.67,2.11-1.96,2.11s-1.96-.77-1.96-2.11Z" style="fill:#1d1c1b;"/><path d="M201.68,50.11v-.48h1.24v.57c0,.6.26.81.68.81s.68-.22.68-.84c0-.69-.26-1.14-1.13-1.89-1.1-.97-1.46-1.65-1.46-2.61,0-1.32.68-2.08,1.96-2.08s1.92.77,1.92,2.11v.35h-1.25v-.43c0-.6-.24-.83-.66-.83s-.66.23-.66.8c0,.61.28,1.05,1.14,1.81,1.1.97,1.45,1.64,1.45,2.68,0,1.37-.69,2.13-1.99,2.13s-1.94-.77-1.94-2.11Z" style="fill:#1d1c1b;"/><path d="M207.51,44.91h-1.38v-1.2h4.07v1.2h-1.38v7.18h-1.32v-7.18Z" style="fill:#1d1c1b;"/><path d="M210.95,43.72h1.95c1.36,0,1.95.63,1.95,1.93v.52c0,.86-.28,1.41-.86,1.65v.02c.66.2.87.83.87,1.77v1.47c0,.41.01.71.14,1.02h-1.34c-.07-.22-.12-.35-.12-1.03v-1.53c0-.78-.23-1.03-.83-1.03h-.45v3.59h-1.32v-8.38ZM212.75,47.31c.49,0,.79-.22.79-.89v-.65c0-.6-.2-.86-.67-.86h-.6v2.39h.48Z" style="fill:#1d1c1b;"/><path d="M215.89,43.72h1.32v8.38h-1.32v-8.38Z" style="fill:#1d1c1b;"/><path d="M218.31,43.72h3.59v1.2h-2.27v2.22h1.81v1.2h-1.81v2.57h2.27v1.2h-3.59v-8.38Z" style="fill:#1d1c1b;"/><path d="M222.57,50.11v-.48h1.24v.57c0,.6.26.81.68.81s.68-.22.68-.84c0-.69-.26-1.14-1.13-1.89-1.1-.97-1.46-1.65-1.46-2.61,0-1.32.68-2.08,1.96-2.08s1.92.77,1.92,2.11v.35h-1.25v-.43c0-.6-.24-.83-.66-.83s-.66.23-.66.8c0,.61.28,1.05,1.14,1.81,1.1.97,1.45,1.64,1.45,2.68,0,1.37-.69,2.13-1.99,2.13s-1.94-.77-1.94-2.11Z" style="fill:#1d1c1b;"/></svg>